<svg xmlns="http://www.w3.org/2000/svg" viewBox="0 0 1200 630" role="img" aria-label="FilesHub Docs social card">
  <defs>
    <linearGradient id="sc-bg" x1="0" y1="0" x2="1" y2="1">
      <stop offset="0" stop-color="#0c1020"/>
      <stop offset="1" stop-color="#1a1240"/>
    </linearGradient>
    <linearGradient id="sc-grad" x1="0" y1="0" x2="1" y2="1">
      <stop offset="0" stop-color="#6366f1"/>
      <stop offset="1" stop-color="#8b5cf6"/>
    </linearGradient>
    <linearGradient id="sc-hub" x1="0" y1="0" x2="1" y2="1">
      <stop offset="0" stop-color="#22d3ee"/>
      <stop offset="1" stop-color="#06b6d4"/>
    </linearGradient>
  </defs>
  <rect width="1200" height="630" fill="url(#sc-bg)"/>
  <!-- logo mark -->
  <g transform="translate(96 210)">
    <rect x="0" y="0" width="210" height="210" rx="48" fill="url(#sc-grad)"/>
    <path d="M64 56 h52 l34 34 v82 a10 10 0 0 1 -10 10 H64 a10 10 0 0 1 -10 -10 V66 a10 10 0 0 1 10 -10 z" fill="#ffffff" opacity="0.95"/>
    <g stroke="url(#sc-hub)" stroke-width="8" stroke-linecap="round">
      <line x1="105" y1="140" x2="80" y2="118"/>
      <line x1="105" y1="140" x2="130" y2="118"/>
      <line x1="105" y1="140" x2="105" y2="166"/>
    </g>
    <circle cx="105" cy="140" r="15" fill="url(#sc-hub)"/>
  </g>
  <!-- text -->
  <text x="360" y="280" font-family="Inter, system-ui, sans-serif" font-size="92" font-weight="800" fill="#ffffff">FilesHub Docs</text>
  <text x="362" y="345" font-family="Inter, system-ui, sans-serif" font-size="36" font-weight="500" fill="#a5b4fc">File storage + utility API, keyed by X-API-Key</text>
  <text x="362" y="408" font-family="Inter, system-ui, sans-serif" font-size="30" font-weight="400" fill="#67e8f9">Upload · serve · list · delete — over plain HTTP</text>
  <text x="362" y="470" font-family="Inter, system-ui, sans-serif" font-size="26" font-weight="400" fill="#94a3b8">docs.fileshub.zaions.com  ·  by Ahsan Mahmood</text>
</svg>
